<svg width="220" height="130" viewBox="0 0 220 130" fill="none" xmlns="http://www.w3.org/2000/svg">
<path d="M137.785 34.2233L149.504 24.8565L109.725 0L64.4321 28.3032V39.8191L97.6823 66.9464L137.785 34.2233Z" fill="#166EB5"/>
<path d="M64.4321 77.6511H84.5445L64.4321 61.2288V77.6511Z" fill="#1DB9EB"/>
<path d="M155.018 41.6842L148.166 47.1583L110.82 77.6511H155.018V41.6842Z" fill="#114371"/>
<path d="M0 129.514V93.7498H7.58264V108.51H22.9102V93.7498H30.4523V129.514H22.9102V114.714H7.58264V129.514H0Z" fill="#114371"/>
<path fill-rule="evenodd" clip-rule="evenodd" d="M48.6587 130C45.9284 130 43.5766 129.432 41.6032 128.297C39.6298 127.134 38.1159 125.512 37.0617 123.431C35.9804 121.349 35.4397 118.943 35.4397 116.213C35.4397 113.429 35.9804 110.996 37.0617 108.914C38.1159 106.86 39.6298 105.251 41.6032 104.089C43.5766 102.927 45.9284 102.345 48.6587 102.345C51.362 102.345 53.7003 102.927 55.6736 104.089C57.647 105.251 59.1609 106.86 60.2152 108.914C61.2965 110.996 61.8371 113.429 61.8371 116.213C61.8371 118.943 61.2965 121.349 60.2152 123.431C59.1609 125.512 57.647 127.134 55.6736 128.297C53.7003 129.432 51.362 130 48.6587 130ZM48.6587 124.242C49.9022 124.242 50.9429 123.89 51.781 123.188C52.5919 122.485 53.2137 121.525 53.6462 120.309C54.0517 119.092 54.2544 117.7 54.2544 116.132C54.2544 114.591 54.0517 113.212 53.6462 111.996C53.2137 110.753 52.5919 109.779 51.781 109.076C50.9429 108.374 49.9022 108.022 48.6587 108.022C47.4152 108.022 46.3744 108.374 45.5364 109.076C44.6984 109.779 44.0631 110.753 43.6306 111.996C43.2251 113.212 43.0224 114.591 43.0224 116.132C43.0224 117.7 43.2251 119.092 43.6306 120.309C44.0631 121.525 44.6984 122.485 45.5364 123.188C46.3744 123.89 47.4152 124.242 48.6587 124.242Z" fill="#114371"/>
<path d="M66.6626 129.513V102.71H73.7587V107.414H74.0831C74.6237 105.846 75.5564 104.616 76.881 103.724C78.1785 102.805 79.7329 102.345 81.5441 102.345C83.3823 102.345 84.9502 102.805 86.2478 103.724C87.5453 104.643 88.3969 105.873 88.8024 107.414H89.0862C89.6539 105.873 90.6541 104.643 92.0868 103.724C93.5196 102.805 95.2226 102.345 97.196 102.345C99.683 102.345 101.71 103.143 103.278 104.738C104.846 106.306 105.63 108.549 105.63 111.469V129.513H98.2097V112.929C98.2097 111.442 97.8177 110.333 97.0338 109.604C96.2228 108.847 95.2361 108.468 94.0737 108.468C92.7221 108.468 91.6678 108.901 90.9109 109.766C90.154 110.604 89.7755 111.726 89.7755 113.131V129.513H82.5578V112.766C82.5578 111.469 82.1793 110.428 81.4224 109.644C80.6655 108.86 79.6789 108.468 78.4624 108.468C77.6514 108.468 76.908 108.671 76.2322 109.076C75.5834 109.509 75.0698 110.09 74.6913 110.82C74.3129 111.55 74.1236 112.415 74.1236 113.415V129.513H66.6626Z" fill="#114371"/>
<path d="M123.715 130C120.958 130 118.579 129.446 116.578 128.337C114.605 127.202 113.078 125.607 111.996 123.552C110.942 121.498 110.415 119.052 110.415 116.213C110.415 113.456 110.942 111.036 111.996 108.955C113.078 106.873 114.591 105.251 116.538 104.089C118.484 102.927 120.768 102.345 123.39 102.345C125.175 102.345 126.824 102.629 128.337 103.197C129.878 103.765 131.216 104.603 132.352 105.711C133.514 106.846 134.406 108.266 135.028 109.969C135.677 111.672 136.001 113.672 136.001 115.97V117.997H113.375V113.375H128.986C128.986 112.32 128.756 111.374 128.297 110.536C127.837 109.725 127.202 109.076 126.391 108.59C125.553 108.13 124.593 107.901 123.512 107.901C122.404 107.901 121.404 108.157 120.511 108.671C119.646 109.185 118.971 109.874 118.484 110.739C117.997 111.604 117.754 112.564 117.754 113.618V117.997C117.754 119.322 117.997 120.471 118.484 121.444C118.971 122.417 119.673 123.16 120.593 123.674C121.512 124.215 122.593 124.485 123.836 124.485C124.647 124.485 125.391 124.363 126.067 124.12C126.77 123.877 127.364 123.525 127.851 123.066C128.337 122.606 128.702 122.039 128.946 121.363L135.839 121.809C135.488 123.458 134.771 124.904 133.69 126.148C132.636 127.364 131.257 128.31 129.554 128.986C127.851 129.662 125.905 130 123.715 130Z" fill="#114371"/>
<path d="M140.989 129.514V93.7494H148.531V109.523H149.017L161.871 93.7494H170.914L157.654 109.766L171.076 129.514H162.034L152.261 114.794L148.531 119.336V129.514H140.989Z" fill="#114371"/>
<path d="M174.725 129.513V102.71H181.943V107.374H182.227C182.713 105.698 183.524 104.441 184.66 103.603C185.822 102.737 187.147 102.305 188.634 102.305C189.012 102.305 189.418 102.332 189.85 102.386C190.283 102.44 190.661 102.508 190.986 102.589V109.158C190.634 109.05 190.147 108.955 189.526 108.874C188.931 108.793 188.377 108.752 187.863 108.752C186.755 108.752 185.782 108.996 184.944 109.482C184.079 109.942 183.403 110.59 182.916 111.428C182.403 112.266 182.146 113.24 182.146 114.348V129.513H174.725Z" fill="#114371"/>
<path d="M211.99 118.078V102.71H219.411V129.513H212.274V124.607H212.031C211.409 126.201 210.395 127.472 208.99 128.418C207.611 129.364 205.908 129.837 203.88 129.837C202.096 129.837 200.528 129.432 199.177 128.621C197.798 127.81 196.73 126.647 195.973 125.134C195.216 123.647 194.824 121.849 194.797 119.741V102.71H202.258V118.443C202.258 120.011 202.677 121.254 203.515 122.174C204.353 123.093 205.475 123.552 206.881 123.552C207.773 123.552 208.611 123.35 209.395 122.944C210.179 122.539 210.814 121.93 211.301 121.119C211.787 120.281 212.017 119.268 211.99 118.078Z" fill="#114371"/>
</svg>
