<svg width="113" height="67" viewBox="0 0 113 67" fill="none" xmlns="http://www.w3.org/2000/svg">
<path d="M70.6838 17.8715L76.6955 13.0664L56.2891 0.314941L33.0537 14.8345V20.7422L50.111 34.6585L70.6838 17.8715Z" fill="white"/>
<path d="M33.0537 40.1503H43.3713L33.0537 31.7256V40.1503Z" fill="white"/>
<path d="M79.5246 21.6989L76.0091 24.5071L56.8508 40.1499H79.5246V21.6989Z" fill="white"/>
<path d="M0 66.7555V48.4084H3.88989V55.9802H11.7529V48.4084H15.622V66.7555H11.7529V59.1629H3.88989V66.7555H0Z" fill="white"/>
<path fill-rule="evenodd" clip-rule="evenodd" d="M24.962 67.0048C23.5614 67.0048 22.3549 66.7136 21.3425 66.1312C20.3302 65.5349 19.5536 64.7028 19.0127 63.635C18.458 62.5672 18.1807 61.3329 18.1807 59.9323C18.1807 58.5039 18.458 57.2558 19.0127 56.188C19.5536 55.134 20.3302 54.3089 21.3425 53.7126C22.3549 53.1163 23.5614 52.8181 24.962 52.8181C26.3488 52.8181 27.5483 53.1163 28.5607 53.7126C29.573 54.3089 30.3496 55.134 30.8905 56.188C31.4452 57.2558 31.7225 58.5039 31.7225 59.9323C31.7225 61.3329 31.4452 62.5672 30.8905 63.635C30.3496 64.7028 29.573 65.5349 28.5607 66.1312C27.5483 66.7136 26.3488 67.0048 24.962 67.0048ZM24.962 64.051C25.5999 64.051 26.1338 63.8707 26.5637 63.5102C26.9798 63.1496 27.2987 62.6573 27.5206 62.0333C27.7286 61.4092 27.8326 60.695 27.8326 59.8907C27.8326 59.1002 27.7286 58.393 27.5206 57.7689C27.2987 57.131 26.9798 56.6318 26.5637 56.2712C26.1338 55.9106 25.5999 55.7303 24.962 55.7303C24.3241 55.7303 23.7902 55.9106 23.3603 56.2712C22.9304 56.6318 22.6045 57.131 22.3826 57.7689C22.1746 58.393 22.0706 59.1002 22.0706 59.8907C22.0706 60.695 22.1746 61.4092 22.3826 62.0333C22.6045 62.6573 22.9304 63.1496 23.3603 63.5102C23.7902 63.8707 24.3241 64.051 24.962 64.051Z" fill="white"/>
<path d="M34.1978 66.7552V53.0053H37.838V55.4183H38.0045C38.2818 54.614 38.7603 53.983 39.4398 53.5254C40.1054 53.0539 40.9028 52.8181 41.832 52.8181C42.775 52.8181 43.5793 53.0539 44.2449 53.5254C44.9106 53.9969 45.3474 54.6279 45.5555 55.4183H45.7011C45.9923 54.6279 46.5054 53.9969 47.2404 53.5254C47.9754 53.0539 48.849 52.8181 49.8614 52.8181C51.1372 52.8181 52.1773 53.2272 52.9816 54.0454C53.786 54.8497 54.1881 56.0008 54.1881 57.4985V66.7552H50.3814V58.2474C50.3814 57.4846 50.1803 56.916 49.7782 56.5416C49.3621 56.1533 48.856 55.9592 48.2597 55.9592C47.5663 55.9592 47.0254 56.1811 46.6371 56.6248C46.2488 57.0547 46.0547 57.6302 46.0547 58.3514V66.7552H42.352V58.1641C42.352 57.4985 42.1578 56.9646 41.7695 56.5624C41.3813 56.1602 40.8751 55.9592 40.251 55.9592C39.835 55.9592 39.4536 56.0632 39.107 56.2712C38.7741 56.4931 38.5106 56.7912 38.3165 57.1657C38.1223 57.5401 38.0253 57.9839 38.0253 58.497V66.7552H34.1978Z" fill="white"/>
<path d="M63.4658 67.0048C62.0513 67.0048 60.8309 66.7206 59.8047 66.152C58.7923 65.5695 58.0088 64.7513 57.4541 63.6974C56.9132 62.6434 56.6428 61.3884 56.6428 59.9323C56.6428 58.5178 56.9132 57.2766 57.4541 56.2088C58.0088 55.141 58.7854 54.3089 59.7839 53.7126C60.7823 53.1163 61.9542 52.8181 63.2993 52.8181C64.2146 52.8181 65.0606 52.9637 65.8372 53.255C66.6276 53.5462 67.314 53.9761 67.8965 54.5447C68.4928 55.1271 68.9505 55.8552 69.2694 56.7288C69.6022 57.6025 69.7686 58.6287 69.7686 59.8075V60.8476H58.1614V58.4762H66.17C66.17 57.9353 66.0521 57.45 65.8163 57.0201C65.5806 56.604 65.2547 56.2712 64.8387 56.0216C64.4088 55.7858 63.9165 55.6679 63.3618 55.6679C62.7932 55.6679 62.2801 55.7997 61.8224 56.0632C61.3787 56.3267 61.032 56.6803 60.7823 57.1241C60.5327 57.5678 60.4079 58.0601 60.4079 58.601V60.8476C60.4079 61.5271 60.5327 62.1165 60.7823 62.6157C61.032 63.1149 61.3925 63.4963 61.864 63.7598C62.3355 64.0371 62.8902 64.1758 63.5282 64.1758C63.9442 64.1758 64.3255 64.1134 64.6722 63.9886C65.0328 63.8638 65.3379 63.6835 65.5875 63.4478C65.8371 63.212 66.0244 62.9208 66.1492 62.5741L69.6855 62.8029C69.5052 63.6488 69.1377 64.3908 68.583 65.0287C68.0421 65.6527 67.3349 66.1381 66.4612 66.4848C65.5875 66.8315 64.5891 67.0048 63.4658 67.0048Z" fill="white"/>
<path d="M72.3271 66.7555V48.4084H76.1962V56.5003H76.4459L83.04 48.4084H87.6788L80.8766 56.6251L87.7619 66.7555H83.1232L78.11 59.2045L76.1962 61.5343V66.7555H72.3271Z" fill="white"/>
<path d="M89.634 66.7551V53.0053H93.3367V55.3974H93.4823C93.732 54.5376 94.148 53.8928 94.7304 53.4629C95.3267 53.0191 96.0063 52.7972 96.769 52.7972C96.9631 52.7972 97.1712 52.8111 97.393 52.8388C97.6149 52.8666 97.8091 52.9013 97.9755 52.9429V56.3127C97.7952 56.2573 97.5456 56.2087 97.2266 56.1671C96.9215 56.1255 96.6373 56.1047 96.3738 56.1047C95.8052 56.1047 95.306 56.2295 94.8761 56.4791C94.4323 56.7149 94.0856 57.0477 93.836 57.4776C93.5725 57.9075 93.4407 58.4068 93.4407 58.9753V66.7551H89.634Z" fill="white"/>
<path d="M108.751 60.8887V53.0049H112.558V66.7548H108.896V64.2378H108.772C108.453 65.056 107.933 65.7078 107.211 66.1931C106.504 66.6785 105.631 66.9212 104.59 66.9212C103.675 66.9212 102.871 66.7132 102.177 66.2971C101.47 65.8811 100.922 65.2848 100.534 64.5082C100.146 63.7455 99.9448 62.8233 99.9309 61.7416V53.0049H103.758V61.0759C103.758 61.8803 103.973 62.5182 104.403 62.9897C104.833 63.4612 105.409 63.6969 106.13 63.6969C106.587 63.6969 107.017 63.5929 107.419 63.3849C107.822 63.1769 108.148 62.8649 108.397 62.4488C108.647 62.0189 108.765 61.4989 108.751 60.8887Z" fill="white"/>
</svg>
